<svg xmlns="http://www.w3.org/2000/svg" xmlns:xlink="http://www.w3.org/1999/xlink" width="770" height="425" viewBox="0 0 770 425">
  <defs>
    <filter id="Rectangle_23" x="16" y="5" width="754" height="420" filterUnits="userSpaceOnUse">
      <feOffset dx="8" dy="8" input="SourceAlpha"/>
      <feGaussianBlur stdDeviation="21.5" result="blur"/>
      <feFlood flood-color="#002b57" flood-opacity="0.278"/>
      <feComposite operator="in" in2="blur"/>
      <feComposite in="SourceGraphic"/>
    </filter>
    <filter id="Rectangle_21" x="0" y="0" width="754" height="420" filterUnits="userSpaceOnUse">
      <feOffset dx="-8" dy="3" input="SourceAlpha"/>
      <feGaussianBlur stdDeviation="21.5" result="blur-2"/>
      <feFlood flood-color="#fff"/>
      <feComposite operator="in" in2="blur-2"/>
      <feComposite in="SourceGraphic"/>
    </filter>
    <filter id="Rectangle_15" x="63.5" y="49.5" width="643" height="309" filterUnits="userSpaceOnUse">
      <feOffset dy="3" input="SourceAlpha"/>
      <feGaussianBlur stdDeviation="3" result="blur-3"/>
      <feFlood flood-opacity="0.161"/>
      <feComposite operator="in" in2="blur-3"/>
      <feComposite in="SourceGraphic"/>
    </filter>
    <filter id="Emprestimo">
      <feOffset dy="3" input="SourceAlpha"/>
      <feGaussianBlur stdDeviation="3" result="blur-4"/>
      <feFlood flood-opacity="0.302" result="color"/>
      <feComposite operator="out" in="SourceGraphic" in2="blur-4"/>
      <feComposite operator="in" in="color"/>
      <feComposite operator="in" in2="SourceGraphic"/>
    </filter>
    <filter id="Path_7" x="63.5" y="55.5" width="643" height="321" filterUnits="userSpaceOnUse">
      <feOffset dy="3" input="SourceAlpha"/>
      <feGaussianBlur stdDeviation="3" result="blur-5"/>
      <feFlood flood-opacity="0.161"/>
      <feComposite operator="in" in2="blur-5"/>
      <feComposite in="SourceGraphic"/>
    </filter>
    <filter id="Peak_Invest">
      <feOffset dy="3" input="SourceAlpha"/>
      <feGaussianBlur stdDeviation="3" result="blur-6"/>
      <feFlood flood-opacity="0.302" result="color-2"/>
      <feComposite operator="out" in="SourceGraphic" in2="blur-6"/>
      <feComposite operator="in" in="color-2"/>
      <feComposite operator="in" in2="SourceGraphic"/>
    </filter>
    <filter id="Rectangle_19" x="409.5" y="306.5" width="278" height="98" filterUnits="userSpaceOnUse">
      <feOffset dy="3" input="SourceAlpha"/>
      <feGaussianBlur stdDeviation="3" result="blur-7"/>
      <feFlood flood-color="#0e25bc" flood-opacity="0.4"/>
      <feComposite operator="in" in2="blur-7"/>
      <feComposite in="SourceGraphic"/>
    </filter>
  </defs>
  <g id="form1_peak" transform="translate(-409.5 -83.5)">
    <g transform="matrix(1, 0, 0, 1, 409.5, 83.5)" filter="url(#Rectangle_23)">
      <rect id="Rectangle_23-2" data-name="Rectangle 23" width="625" height="291" rx="28" transform="translate(72.5 61.5)" fill="#fff"/>
    </g>
    <g transform="matrix(1, 0, 0, 1, 409.5, 83.5)" filter="url(#Rectangle_21)">
      <rect id="Rectangle_21-2" data-name="Rectangle 21" width="625" height="291" rx="28" transform="translate(72.5 61.5)" fill="#fff"/>
    </g>
    <g id="form_subForm1" transform="translate(0 -3)">
      <g transform="matrix(1, 0, 0, 1, 409.5, 86.5)" filter="url(#Rectangle_15)">
        <rect id="Rectangle_15-2" data-name="Rectangle 15" width="625" height="291" rx="28" transform="translate(72.5 55.5)" fill="#fff"/>
      </g>
      <g id="Rectangle_28" data-name="Rectangle 28" transform="translate(524 297)" fill="#fff" stroke="#dfdfdf" stroke-width="1">
        <rect width="170" height="43" rx="9" stroke="none"/>
        <rect x="0.5" y="0.5" width="169" height="42" rx="8.5" fill="none"/>
      </g>
      <text id="CPF_do_destinatario:" data-name="CPF do destinatario:" transform="translate(601 293)" font-size="17" font-family="SegoeUI, Segoe UI"><tspan x="-74.989" y="0">CPF do destinatario:</tspan></text>
      <g id="Rectangle_29" data-name="Rectangle 29" transform="translate(711 297)" fill="#fff" stroke="#dfdfdf" stroke-width="1">
        <rect width="170" height="43" rx="9" stroke="none"/>
        <rect x="0.5" y="0.5" width="169" height="42" rx="8.5" fill="none"/>
      </g>
      <text id="QTD_de_parcelas" data-name="QTD de parcelas" transform="translate(780 293)" font-size="17" font-family="SegoeUI, Segoe UI"><tspan x="-61.185" y="0">QTD de parcelas</tspan></text>
      <g id="Rectangle_30" data-name="Rectangle 30" transform="translate(898 297)" fill="#fff" stroke="#dfdfdf" stroke-width="1">
        <rect width="170" height="43" rx="9" stroke="none"/>
        <rect x="0.5" y="0.5" width="169" height="42" rx="8.5" fill="none"/>
      </g>
      <text id="Taxa_" data-name="Taxa %" transform="translate(933 293)" font-size="17" font-family="SegoeUI, Segoe UI"><tspan x="-25.334" y="0">Taxa %</tspan></text>
      <rect id="Rectangle_31" data-name="Rectangle 31" width="294" height="84" rx="42" transform="translate(797 165)" fill="#fbfbfb"/>
      <g data-type="innerShadowGroup">
        <text id="Emprestimo-2" data-name="Emprestimo" transform="translate(947 223)" fill="#e2e2e2" font-size="33" font-family="SegoeUI, Segoe UI"><tspan x="-87.092" y="0">Emprestimo</tspan></text>
        <g transform="matrix(1, 0, 0, 1, 409.5, 86.5)" filter="url(#Emprestimo)">
          <text id="Emprestimo-3" data-name="Emprestimo" transform="translate(537.5 136.5)" fill="#fff" font-size="33" font-family="SegoeUI, Segoe UI"><tspan x="-87.092" y="0">Emprestimo</tspan></text>
        </g>
      </g>
    </g>
    <g id="GroupForm_etapa1">
      <g transform="matrix(1, 0, 0, 1, 409.5, 83.5)" filter="url(#Path_7)">
        <g id="Path_7-2" data-name="Path 7" transform="translate(72.5 61.5)" fill="#fff">
          <path d="M 310.6179504394531 302.5 L 28 302.5 C 24.28730773925781 302.5 20.68592262268066 301.7730102539062 17.29592323303223 300.3391418457031 C 14.02130794525146 298.9540710449219 11.08023071289062 296.9711608886719 8.554538726806641 294.4454650878906 C 6.028846263885498 291.9197692871094 4.045923233032227 288.9786987304688 2.66084623336792 285.7040710449219 C 1.226999998092651 282.3140869140625 0.5 278.7127075195312 0.5 275 L 0.5 28 C 0.5 24.28730773925781 1.226999998092651 20.68592262268066 2.66084623336792 17.29592323303223 C 4.045923233032227 14.02130794525146 6.028846263885498 11.08023071289062 8.554538726806641 8.554538726806641 C 11.08023071289062 6.028846263885498 14.02130794525146 4.045923233032227 17.29592323303223 2.66084623336792 C 20.68592262268066 1.226999998092651 24.28730773925781 0.5 28 0.5 L 597 0.5 C 600.7127075195312 0.5 604.3140869140625 1.226999998092651 607.7041015625 2.66084623336792 C 610.9786987304688 4.045923233032227 613.9197387695312 6.028846263885498 616.4454345703125 8.554538726806641 C 618.9711303710938 11.08023071289062 620.9541015625 14.02130794525146 622.3391723632812 17.29592323303223 C 623.7730102539062 20.68592262268066 624.5 24.28730773925781 624.5 28 L 624.5 210 C 624.5 213.7126922607422 623.7730102539062 217.3140716552734 622.3391723632812 220.7040710449219 C 620.9541015625 223.9786987304688 618.9711303710938 226.9197692871094 616.4454345703125 229.4454650878906 C 613.9197387695312 231.9711608886719 610.9786987304688 233.9540710449219 607.7041015625 235.3391571044922 C 604.3140869140625 236.7729949951172 600.7127075195312 237.5 597 237.5 L 376.1771545410156 237.5 C 364.2526245117188 237.5 353.3753051757812 240.9483795166016 343.8473815917969 247.7493133544922 C 336.2384643554688 253.1804656982422 329.4736022949219 260.7479858398438 323.7409362792969 270.2415466308594 C 318.6487731933594 278.67431640625 315.3293151855469 287.1001586914062 313.4413146972656 292.6836242675781 C 311.7596435546875 297.65673828125 310.8821716308594 301.3262329101562 310.6179504394531 302.5 Z" stroke="none"/>
          <path d="M 28 1 C 24.35455322265625 1 20.81866455078125 1.713775634765625 17.49072265625 3.12139892578125 C 14.275634765625 4.481231689453125 11.3880615234375 6.42816162109375 8.9080810546875 8.9080810546875 C 6.42816162109375 11.38809204101562 4.481201171875 14.27560424804688 3.12139892578125 17.49069213867188 C 1.7137451171875 20.81869506835938 1 24.35455322265625 1 28 L 1 275 C 1 278.6454467773438 1.7137451171875 282.1813049316406 3.12139892578125 285.5093078613281 C 4.481201171875 288.7243957519531 6.42816162109375 291.6119384765625 8.9080810546875 294.0919189453125 C 11.3880615234375 296.5718383789062 14.275634765625 298.5187683105469 17.49072265625 299.8786010742188 C 20.81866455078125 301.2862243652344 24.35455322265625 302 28 302 L 310.2183227539062 302 C 310.5608825683594 300.5238647460938 311.4173278808594 297.1082763671875 312.9676208496094 292.5234680175781 C 314.8636169433594 286.9164733886719 318.1974487304688 278.4544677734375 323.3129272460938 269.9830932617188 C 336.3426208496094 248.4053802490234 354.6228332519531 237 376.1771545410156 237 L 597 237 C 600.6454467773438 237 604.1813354492188 236.2862243652344 607.50927734375 234.8786163330078 C 610.724365234375 233.5187683105469 613.6119384765625 231.5718383789062 616.0919189453125 229.0919189453125 C 618.5718383789062 226.6119232177734 620.518798828125 223.7243957519531 621.8786010742188 220.5093078613281 C 623.2862548828125 217.1813049316406 624 213.6454620361328 624 210 L 624 28 C 624 24.35455322265625 623.2862548828125 20.81869506835938 621.8786010742188 17.49069213867188 C 620.518798828125 14.27560424804688 618.5718383789062 11.38809204101562 616.0919189453125 8.9080810546875 C 613.6119384765625 6.42816162109375 610.724365234375 4.481231689453125 607.50927734375 3.12139892578125 C 604.1813354492188 1.713775634765625 600.6454467773438 1 597 1 L 28 1 M 28 0 L 597 0 C 612.4639892578125 0 625 12.5360107421875 625 28 L 625 210 C 625 225.4639892578125 612.4639892578125 238 597 238 C 597 238 427.9899291992188 238 376.1771545410156 238 C 324.3643188476562 238 311.0203857421875 303 311.0203857421875 303 L 28 303 C 12.5360107421875 303 0 290.4639892578125 0 275 L 0 28 C 0 12.5360107421875 12.5360107421875 0 28 0 Z" stroke="none" fill="#fff"/>
        </g>
      </g>
      <g data-type="innerShadowGroup">
        <text id="Peak_Invest-2" data-name="Peak Invest" transform="translate(591 418)" fill="#e2e2e2" font-size="33" font-family="SegoeUI, Segoe UI"><tspan x="-81.227" y="0">Peak Invest</tspan></text>
        <g transform="matrix(1, 0, 0, 1, 409.5, 83.5)" filter="url(#Peak_Invest)">
          <text id="Peak_Invest-3" data-name="Peak Invest" transform="translate(181.5 334.5)" fill="#fff" font-size="33" font-family="SegoeUI, Segoe UI"><tspan x="-81.227" y="0">Peak Invest</tspan></text>
        </g>
      </g>
      <g id="Rectangle_17" data-name="Rectangle 17" transform="translate(742 206)" fill="#fff" stroke="#dfdfdf" stroke-width="1">
        <rect width="329" height="43" rx="9" stroke="none"/>
        <rect x="0.5" y="0.5" width="328" height="42" rx="8.5" fill="none"/>
      </g>
      <g id="Rectangle_18" data-name="Rectangle 18" transform="translate(742 278)" fill="#fff" stroke="#dfdfdf" stroke-width="1">
        <rect width="329" height="43" rx="9" stroke="none"/>
        <rect x="0.5" y="0.5" width="328" height="42" rx="8.5" fill="none"/>
      </g>
      <text id="Informe_seu_CPF_ou_CNPJ" data-name="Informe seu CPF ou CNPJ" transform="translate(836 202)" font-size="17" font-family="SegoeUI, Segoe UI"><tspan x="-94.455" y="0">Informe seu CPF ou CNPJ</tspan></text>
      <text id="Seu_n_umero_de_WhatsApp" data-name="Seu n[umero de WhatsApp" transform="translate(843 274)" font-size="17" font-family="SegoeUI, Segoe UI"><tspan x="-101.133" y="0">Seu n[umero de WhatsApp</tspan></text>
    </g>
    <g id="Group_buttonAvancar">
      <g id="Group_5" data-name="Group 5" transform="translate(0 -249)">
        <g transform="matrix(1, 0, 0, 1, 409.5, 332.5)" filter="url(#Rectangle_19)">
          <rect id="Rectangle_19-2" data-name="Rectangle 19" width="260" height="80" rx="40" transform="translate(418.5 312.5)" fill="#043260"/>
        </g>
        <text id="Avancar" transform="translate(958 682)" fill="#fff" font-size="34" font-family="SegoeUI, Segoe UI"><tspan x="-59.458" y="0">Avancar</tspan></text>
        <text id="na_Peak_Invest" data-name="na Peak Invest" transform="translate(958 706)" fill="#fff" font-size="14" font-family="SegoeUI, Segoe UI"><tspan x="-43.9" y="0">na Peak Invest</tspan></text>
      </g>
    </g>
    <text id="Emprestar_dinheiro_em_3_etapas_rapidas:" data-name="Emprestar dinheiro em 3 etapas rapidas:" transform="translate(796 127)" fill="#002b57" font-size="33" font-family="SegoeUI, Segoe UI"><tspan x="-292.327" y="0">Emprestar dinheiro em 3 etapas rapidas:</tspan></text>
  </g>
</svg>
